<?xml version="1.0" standalone="no"?>
<!DOCTYPE svg PUBLIC "-//W3C//DTD SVG 20010904//EN"
 "http://www.w3.org/TR/2001/REC-SVG-20010904/DTD/svg10.dtd">
<svg version="1.0" xmlns="http://www.w3.org/2000/svg"
 width="672.000000pt" height="672.000000pt" viewBox="0 0 672.000000 672.000000"
 preserveAspectRatio="xMidYMid meet">
<metadata>
Created by potrace 1.14, written by Peter Selinger 2001-2017
</metadata>
<g transform="translate(0.000000,672.000000) scale(0.100000,-0.100000)"
fill="#000000" stroke="none">
<path d="M1425 5900 c-153 -28 -153 -28 -265 -67 -120 -41 -212 -83 -288 -130
-29 -18 -55 -33 -58 -33 -3 0 -47 -31 -98 -70 -105 -78 -240 -209 -306 -296
-25 -33 -48 -60 -52 -62 -5 -2 -8 -7 -8 -12 0 -5 -17 -35 -38 -67 -98 -150
-194 -390 -218 -543 -3 -19 -7 -46 -10 -60 -3 -14 -8 -52 -11 -85 -9 -83 -9
-2094 0 -2175 14 -123 18 -145 43 -240 121 -446 413 -813 816 -1024 124 -64
303 -129 418 -150 14 -2 36 -7 50 -10 14 -3 48 -9 75 -12 69 -10 2100 -10
2149 -1 157 30 322 188 363 347 15 61 21 167 11 200 -4 14 -9 37 -10 51 -6 48
-70 161 -122 214 -50 52 -161 121 -208 130 -12 3 -36 8 -53 12 -16 4 -475 8
-1020 9 -545 1 -1003 4 -1020 7 -163 30 -340 148 -427 287 -45 72 -84 171 -93
240 -10 71 -12 2000 -3 2006 4 3 5 11 2 19 -3 7 2 41 10 76 61 238 268 433
503 474 64 11 266 13 1073 11 547 -1 1006 -5 1019 -9 206 -57 356 -174 439
-342 38 -76 57 -141 66 -223 3 -23 8 -47 11 -52 3 -6 1 -10 -5 -10 -6 0 -9 -3
-7 -7 3 -5 8 -32 11 -62 7 -58 48 -170 75 -205 116 -149 260 -220 431 -212
124 6 217 47 311 136 65 63 110 138 134 227 14 51 17 88 12 195 -3 73 -8 144
-11 158 -3 13 -8 41 -11 62 -7 46 -55 212 -84 292 -31 84 -91 200 -145 280
-25 38 -46 71 -46 73 0 13 -97 121 -192 215 -200 197 -441 333 -721 408 -43
11 -94 22 -115 25 -20 3 -48 8 -62 12 -14 4 -518 8 -1120 9 -1022 2 -1102 1
-1195 -16z"/>
<path d="M6095 4093 c-99 -17 -182 -61 -257 -135 -61 -61 -91 -110 -121 -198
-18 -51 -19 -98 -22 -725 -1 -368 -3 -676 -4 -682 -1 -9 -7 -7 -19 5 -10 9
-33 28 -51 42 -98 73 -196 152 -199 161 -2 5 -8 9 -13 9 -5 0 -19 9 -31 19
-28 24 -272 216 -319 251 -18 14 -47 37 -63 51 -17 14 -71 56 -121 94 -49 39
-95 74 -101 80 -6 5 -26 21 -44 35 -38 28 -89 70 -106 85 -6 5 -23 19 -38 30
-25 18 -95 72 -181 141 -72 57 -154 121 -185 144 -18 14 -38 30 -44 35 -12 11
-362 288 -404 320 -15 11 -69 53 -121 93 -134 104 -209 138 -326 145 -100 7
-255 -39 -312 -93 -12 -11 -25 -20 -28 -20 -3 0 -24 -19 -45 -42 -48 -52 -107
-166 -119 -234 -15 -76 -6 -191 19 -259 27 -72 94 -169 145 -210 21 -16 95
-75 165 -130 70 -55 210 -165 311 -244 101 -80 186 -148 189 -151 3 -3 21 -17
40 -30 19 -14 42 -32 51 -40 9 -8 57 -46 107 -85 51 -38 92 -73 92 -77 0 -4 4
-8 10 -8 5 0 80 -56 167 -125 87 -69 169 -134 183 -145 14 -11 86 -67 160
-126 74 -58 148 -116 163 -127 16 -12 34 -27 40 -32 7 -6 55 -44 107 -85 52
-40 97 -76 100 -80 3 -3 21 -17 40 -30 19 -13 37 -27 40 -30 3 -3 41 -34 85
-68 44 -35 87 -68 95 -75 8 -7 78 -61 155 -122 77 -60 142 -112 145 -115 3 -3
23 -18 45 -35 22 -16 45 -34 51 -40 6 -5 26 -21 44 -35 18 -14 91 -71 162
-127 71 -57 133 -103 138 -103 5 0 10 -4 12 -8 3 -8 69 -56 78 -58 3 0 23 -8
45 -18 66 -29 177 -38 271 -24 89 15 198 78 271 158 43 46 99 161 111 226 11
62 9 2436 -2 2479 -23 90 -65 165 -131 231 -33 34 -70 64 -82 68 -13 4 -23 11
-23 15 0 12 -157 61 -206 64 -22 2 -76 -3 -119 -10z"/>
</g>
</svg>
